<?xml version="1.0" standalone="no"?>
<!DOCTYPE svg PUBLIC "-//W3C//DTD SVG 20010904//EN"
 "http://www.w3.org/TR/2001/REC-SVG-20010904/DTD/svg10.dtd">
<svg version="1.0" xmlns="http://www.w3.org/2000/svg"
 width="256.000000pt" height="256.000000pt" viewBox="0 0 256.000000 256.000000"
 preserveAspectRatio="xMidYMid meet">

<g transform="translate(0.000000,256.000000) scale(0.100000,-0.100000)"
fill="#000000" stroke="none">
<path fill="#9b0000" d="M606 2239 c-30 -35 -33 -67 -11 -109 17 -32 43 -50 73 -50 25 0 44
-29 86 -132 56 -136 122 -289 156 -363 31 -66 31 -70 14 -80 -22 -12 -82 -72
-104 -104 -15 -21 -15 -21 -50 30 -19 28 -43 59 -52 69 -31 34 -38 58 -32 104
6 44 5 48 -31 82 -32 30 -43 35 -69 30 -66 -13 -95 -76 -67 -144 13 -31 45
-49 95 -54 25 -2 41 -18 88 -83 60 -83 71 -115 40 -115 -10 0 -39 -14 -65 -30
-26 -16 -51 -30 -56 -30 -8 0 -220 120 -296 167 -16 10 -31 27 -33 38 -11 69
-53 103 -111 90 -40 -9 -61 -40 -61 -91 0 -35 5 -47 31 -68 36 -30 34 -30 89
-11 l42 15 96 -58 c53 -31 108 -62 122 -68 14 -7 40 -25 58 -40 l32 -29 -16
-54 c-16 -53 -15 -70 12 -178 6 -22 2 -26 -121 -106 -40 -25 -60 -32 -102 -32
-64 0 -92 -23 -100 -82 -7 -50 25 -91 78 -99 28 -5 41 -1 67 21 27 23 32 34
32 71 0 43 1 44 73 91 39 27 74 51 75 56 7 15 35 6 75 -26 23 -18 55 -38 70
-45 34 -15 136 -16 172 -2 20 8 35 6 66 -10 45 -23 44 -17 24 -171 -11 -83
-20 -117 -32 -127 -9 -6 -19 -12 -23 -12 -12 0 -40 -59 -40 -85 0 -33 24 -81
45 -89 22 -8 78 -7 91 2 23 16 44 59 44 91 0 26 -8 44 -32 68 l-31 33 16 78
c9 42 17 91 17 109 0 41 14 50 85 58 53 6 62 5 79 -14 14 -15 31 -21 63 -21
37 0 45 -4 55 -25 6 -14 28 -32 48 -41 37 -17 37 -17 44 -92 12 -144 9 -173
-21 -205 -22 -22 -28 -38 -28 -72 0 -51 23 -82 70 -91 103 -19 156 122 65 174
-30 17 -30 17 -30 111 0 85 2 92 18 86 92 -40 145 -44 219 -19 l48 16 32 -37
c27 -32 33 -47 33 -85 0 -82 56 -124 127 -95 17 7 36 22 42 33 19 36 13 89
-13 119 -20 24 -32 28 -71 27 -42 -1 -48 2 -77 38 -28 36 -30 43 -20 74 6 22
7 46 2 66 -10 35 -4 52 34 87 24 23 28 23 68 12 24 -7 72 -28 108 -46 36 -18
82 -41 103 -51 28 -12 43 -27 53 -55 11 -26 27 -43 51 -54 42 -20 74 -14 108
23 69 74 -16 193 -106 148 -45 -23 -64 -20 -154 17 -127 54 -175 78 -175 91 0
6 4 28 9 48 5 21 5 54 1 73 -10 45 -6 47 130 74 58 12 127 26 153 31 66 14 86
13 103 -5 35 -34 98 -31 134 7 30 33 28 102 -5 132 -55 51 -118 37 -149 -31
-16 -37 -21 -40 -79 -50 -34 -5 -120 -22 -191 -37 l-129 -26 -58 58 c-32 32
-55 62 -51 68 4 5 43 35 88 67 79 55 83 56 132 50 45 -5 53 -3 76 20 26 26 35
82 20 122 -10 26 -62 48 -99 41 -44 -9 -66 -36 -72 -91 -5 -40 -11 -49 -54
-80 -27 -19 -53 -35 -58 -35 -5 0 -14 -7 -21 -15 -19 -23 -28 -19 -49 24 -23
44 -72 89 -113 103 -40 14 -37 25 27 123 18 28 49 76 69 107 28 43 45 59 74
68 55 18 72 37 72 82 0 51 -24 86 -65 94 -87 16 -141 -58 -104 -140 10 -22 6
-33 -33 -93 -24 -37 -53 -85 -64 -106 -10 -21 -28 -49 -39 -63 l-21 -26 -46
22 c-69 32 -73 40 -59 108 18 85 40 181 56 237 7 28 21 82 30 120 22 92 32
115 49 115 31 0 56 42 56 91 0 43 -4 51 -35 75 -33 25 -39 26 -74 15 -69 -20
-94 -99 -49 -156 21 -27 21 -28 5 -109 -32 -155 -47 -221 -56 -241 -6 -11 -13
-40 -17 -65 -3 -24 -12 -60 -19 -80 l-12 -35 -69 3 c-38 2 -72 7 -77 11 -4 4
-10 67 -14 140 l-6 132 29 30 c87 91 -38 219 -127 130 -41 -42 -40 -92 2 -132
17 -16 35 -29 40 -29 6 0 8 -62 7 -147 l-3 -147 -34 -23 c-23 -16 -49 -23 -80
-23 -54 0 -34 -34 -166 275 -42 99 -89 207 -105 240 -25 55 -27 62 -14 87 21
41 17 83 -12 117 -21 26 -33 31 -69 31 -36 0 -48 -5 -69 -31z m769 -753 c17
-9 55 -32 85 -51 30 -19 75 -44 99 -55 98 -46 140 -102 141 -186 0 -36 4 -44
37 -65 21 -13 52 -43 70 -67 29 -38 33 -51 33 -103 0 -50 -5 -67 -35 -114 -20
-30 -45 -61 -55 -68 -21 -13 -27 -42 -10 -52 6 -3 10 -19 10 -36 0 -22 -8 -34
-32 -49 -67 -41 -175 -18 -231 49 -14 17 -37 33 -52 37 -18 4 -32 18 -40 39
-21 48 -39 59 -89 52 -43 -6 -45 -5 -51 22 -3 16 -15 37 -26 47 -19 17 -21 16
-54 -16 -41 -40 -87 -44 -132 -13 -15 11 -35 23 -43 27 -8 4 -26 13 -39 21
-20 11 -29 11 -50 1 -98 -49 -203 -12 -250 89 -55 118 15 262 125 258 50 -2
72 18 98 88 9 26 25 54 35 63 21 19 112 36 157 29 26 -4 39 2 70 30 22 19 46
37 54 40 28 12 145 0 175 -17z"/>
</g>
</svg>
